<svg width="160" height="160" viewBox="0 0 160 160" fill="none" xmlns="http://www.w3.org/2000/svg">
  <!-- Logo EM — position (0,0) : visible -->
  <g transform="scale(0.5)">
    <path d="M0 0V159.526H159.747V0H0ZM136.697 135.458H129.655V31.1124H101.158V135.458H94.1163V31.1124H65.6428V135.458H23.0624V24.0806H136.685V135.458H136.697Z" fill="#9E8C7D"/>
    <path d="M58.5893 31.1128H30.1158V75.2153H37.3582V82.5657H30.1158V126.68H58.5893V31.1128Z" fill="#9E8C7D"/>
  </g>
  <!-- position (80,0) : masqué (damier) -->
  <!-- Logo EM — position (0,80) : masqué (damier) -->
  <!-- Logo EM — position (80,80) : visible -->
  <g transform="translate(80,80) scale(0.5)">
    <path d="M0 0V159.526H159.747V0H0ZM136.697 135.458H129.655V31.1124H101.158V135.458H94.1163V31.1124H65.6428V135.458H23.0624V24.0806H136.685V135.458H136.697Z" fill="#9E8C7D"/>
    <path d="M58.5893 31.1128H30.1158V75.2153H37.3582V82.5657H30.1158V126.68H58.5893V31.1128Z" fill="#9E8C7D"/>
  </g>
</svg>
