<svg width="241" height="188" viewBox="0 0 241 188" fill="none" xmlns="http://www.w3.org/2000/svg">
<g clip-path="url(#clip0_11_143)">
<path d="M71.9929 -0.146667V89.9933H162.258V-0.146667H71.9929ZM149.233 76.3933H145.254V17.4333H129.152V76.3933H125.173V17.4333H109.084V76.3933H85.0243V13.46H149.226V76.3933H149.233Z" fill="#9E8C7D"/>
<path d="M105.099 17.4333H89.0098V42.3533H93.1021V46.5067H89.0098V71.4333H105.099V17.4333Z" fill="#9E8C7D"/>
<path d="M15.922 134.107H3.29787V143.28H15.5481V146.527H3.29787V158.527H15.922V161.773H-0.133545V130.867H15.922V134.113V134.107ZM14.5334 122.987L7.43692 128.407L5.44083 126.927L11.2889 120.9L14.5401 122.987H14.5334Z" fill="white"/>
<path d="M29.8413 130.86V158.527H38.3797V161.773H26.4099V130.867H29.8413V130.86Z" fill="white"/>
<path d="M63.2542 134.107H50.63V143.28H62.8803V146.527H50.63V158.527H63.2542V161.773H47.1986V130.867H63.2542V134.113V134.107ZM61.8656 122.987L54.7624 128.407L52.7663 126.927L58.6144 120.9L61.8656 122.987Z" fill="white"/>
<path d="M89.704 146.247H102.602V146.987C102.602 150.413 101.58 154.12 99.6311 156.767C98.7031 158.02 95.225 162.327 88.1218 162.327C78.9358 162.327 72.0663 155.333 72.0663 146.34C72.0663 137.347 78.9825 130.353 88.2153 130.353C91.1861 130.353 94.6642 131.093 97.6817 133.413C99.0703 134.48 100.372 135.867 101.253 137.073L98.7031 139.393C97.8219 138.14 96.8005 137.033 95.7791 136.193C94.297 134.987 91.9738 133.6 88.262 133.6C80.7917 133.6 75.5912 139.207 75.5912 146.387C75.5912 154.82 82.3205 159.08 88.1686 159.08C92.3009 159.08 95.8725 156.993 97.635 153.893C98.1891 152.92 98.7966 151.44 98.8901 149.493H89.704V146.247Z" fill="white"/>
<path d="M130.167 153.06H116.988L113.277 161.773H109.471L123.718 129.387L137.59 161.773H133.785L130.167 153.06ZM128.825 149.813L123.631 137.44L118.344 149.813H128.831H128.825Z" fill="white"/>
<path d="M146.135 161.767V129.56L170.262 154.813V130.86H173.693V163.16L149.567 137.907V161.773H146.135V161.767Z" fill="white"/>
<path d="M209.523 137.673C208.548 136.7 207.066 135.54 205.484 134.8C203.862 134.06 201.959 133.593 200.15 133.593C193.007 133.593 187.713 139.34 187.713 146.473C187.713 154.86 194.536 159.08 200.197 159.08C202.286 159.08 204.329 158.48 205.951 157.647C207.714 156.767 208.969 155.607 209.523 155.053V159.313C206.092 161.767 202.52 162.327 200.197 162.327C191.011 162.327 184.188 155.373 184.188 146.433C184.188 137.493 191.104 130.353 200.384 130.353C202.24 130.353 205.811 130.587 209.523 133.413V137.68V137.673Z" fill="white"/>
<path d="M236.067 134.107H223.442V143.28H235.693V146.527H223.442V158.527H236.067V161.773H220.011V130.867H236.067V134.113V134.107Z" fill="white"/>
<path d="M36.3369 187.4L38.4131 174.233L43.2064 184.767L48.0932 174.22L50.0426 187.407H48.6206L47.439 178.727L43.1864 187.933L38.9873 178.727L37.7522 187.407H36.3303L36.3369 187.4Z" fill="white"/>
<path d="M65.0366 176.233H59.9429V179.94H64.8897V181.247H59.9429V186.093H65.0366V187.4H58.5543V174.927H65.0366V176.233Z" fill="white"/>
<path d="M73.2079 187.4V174.4L82.9481 184.593V174.92H84.3367V187.96L74.5965 177.767V187.4H73.2079Z" fill="white"/>
<path d="M94.5708 182.573C94.5708 183.62 94.5708 184.76 95.5655 185.607C96.0729 186.04 96.934 186.32 97.6283 186.32C98.3226 186.32 99.1838 186.04 99.6912 185.607C100.686 184.767 100.686 183.627 100.686 182.573V174.92H102.074V182.947C102.074 183.993 101.961 185.007 101.287 185.94C100.539 186.967 99.2239 187.627 97.635 187.627C96.0462 187.627 94.731 186.973 93.9833 185.94C93.309 185.007 93.1956 183.993 93.1956 182.947V174.92H94.5841V182.573H94.5708Z" fill="white"/>
<path d="M112.295 174.927V187.4H110.907V174.927H112.295Z" fill="white"/>
<path d="M126.722 177.393C126.555 177.06 126.275 176.68 125.994 176.46C125.747 176.273 125.3 176.027 124.592 176.027C123.357 176.027 122.496 176.793 122.496 177.953C122.496 178.44 122.63 178.72 122.963 179.04C123.337 179.413 123.805 179.62 124.272 179.827L125.474 180.353C126.201 180.673 126.876 181.007 127.403 181.533C128.037 182.167 128.304 182.9 128.304 183.793C128.304 186.093 126.602 187.627 124.352 187.627C123.531 187.627 122.496 187.46 121.635 186.613C121.014 186.013 120.64 185.153 120.473 184.407L121.822 184.033C121.915 184.687 122.216 185.247 122.57 185.62C123.11 186.16 123.731 186.313 124.365 186.313C126.068 186.313 126.876 185.1 126.876 183.847C126.876 183.287 126.709 182.8 126.255 182.387C125.901 182.053 125.414 181.827 124.759 181.527L123.638 181C123.15 180.773 122.536 180.513 121.969 179.973C121.428 179.453 121.108 178.873 121.108 177.933C121.108 176.007 122.59 174.713 124.612 174.713C125.38 174.713 126.001 174.86 126.615 175.273C127.123 175.607 127.55 176.113 127.83 176.66L126.729 177.387L126.722 177.393Z" fill="white"/>
<path d="M142.944 176.233H137.851V179.94H142.798V181.247H137.851V186.093H142.944V187.4H136.462V174.927H142.944V176.233Z" fill="white"/>
<path d="M153.118 174.927C153.96 174.927 155.215 174.98 156.156 175.62C156.884 176.107 157.525 177.06 157.525 178.387C157.525 180.293 156.27 181.7 154.374 181.827L158.346 187.4H156.663L152.858 181.94H152.504V187.4H151.116V174.927H153.118ZM152.498 180.707H153.379C155.101 180.707 156.129 179.887 156.129 178.427C156.129 177.733 155.922 177.04 155.135 176.593C154.574 176.273 153.933 176.24 153.339 176.24H152.498V180.713V180.707Z" fill="white"/>
<path d="M167.525 174.927V187.4H166.136V174.927H167.525Z" fill="white"/>
<path d="M182.853 176.233H177.759V179.94H182.706V181.247H177.759V186.093H182.853V187.4H176.371V174.927H182.853V176.233Z" fill="white"/>
<path d="M196.605 177.393C196.438 177.06 196.158 176.68 195.878 176.46C195.631 176.273 195.183 176.027 194.476 176.027C193.241 176.027 192.379 176.793 192.379 177.953C192.379 178.44 192.513 178.72 192.847 179.04C193.221 179.413 193.688 179.62 194.155 179.827L195.357 180.353C196.085 180.673 196.759 181.007 197.286 181.533C197.92 182.167 198.188 182.9 198.188 183.793C198.188 186.093 196.485 187.627 194.235 187.627C193.414 187.627 192.379 187.46 191.518 186.613C190.897 186.013 190.524 185.153 190.357 184.407L191.705 184.033C191.799 184.687 192.099 185.247 192.453 185.62C192.994 186.16 193.615 186.313 194.249 186.313C195.951 186.313 196.759 185.1 196.759 183.847C196.759 183.287 196.592 182.8 196.138 182.387C195.784 182.053 195.297 181.827 194.643 181.527L193.521 181C193.034 180.773 192.42 180.513 191.852 179.973C191.311 179.453 190.991 178.873 190.991 177.933C190.991 176.007 192.473 174.713 194.496 174.713C195.263 174.713 195.884 174.86 196.499 175.273C197.006 175.607 197.433 176.113 197.714 176.66L196.612 177.387L196.605 177.393Z" fill="white"/>
</g>
<defs>
<clipPath id="clip0_11_143">
<rect width="241" height="188" fill="white"/>
</clipPath>
</defs>
</svg>
